<svg xmlns="http://www.w3.org/2000/svg" viewBox="0 0 256 256" role="img" aria-labelledby="title desc">
  <title id="title">YouTube Command Deck Logo</title>
  <desc id="desc">Rounded square badge with YouTube play symbol and coding brackets.</desc>
  <defs>
    <linearGradient id="bg" x1="0%" y1="0%" x2="100%" y2="100%">
      <stop offset="0%" stop-color="#ff0033"/>
      <stop offset="100%" stop-color="#ff4f72"/>
    </linearGradient>
    <linearGradient id="panel" x1="0%" y1="0%" x2="0%" y2="100%">
      <stop offset="0%" stop-color="#ffffff" stop-opacity="0.98"/>
      <stop offset="100%" stop-color="#f6f6f6" stop-opacity="0.95"/>
    </linearGradient>
  </defs>

  <rect x="18" y="18" width="220" height="220" rx="50" fill="url(#bg)"/>
  <rect x="34" y="38" width="188" height="180" rx="34" fill="url(#panel)"/>

  <path d="M110 95c0-8 8-13 15-9l56 32c7 4 7 14 0 18l-56 32c-7 4-15-1-15-9V95z" fill="#ff0033"/>

  <path d="M82 86L60 114l22 28" fill="none" stroke="#0f0f0f" stroke-width="12" stroke-linecap="round" stroke-linejoin="round"/>
  <path d="M174 86l22 28-22 28" fill="none" stroke="#0f0f0f" stroke-width="12" stroke-linecap="round" stroke-linejoin="round"/>

  <rect x="84" y="175" width="88" height="12" rx="6" fill="#0f0f0f" opacity="0.24"/>
</svg>
